#!OML:ASF H:\Punching\Project 1\Capture day 1\Session 1\female.ASF
:FULLY-SPECIFIED
:DEGREES
669
root -1.43882 14.9065 6.51394 14.5136 -0.495182 1.32988
lowerback -0.816965 -1.38795 -1.10146
upperback -5.05239 -1.92802 -1.1163
thorax -4.75566 -0.943453 -0.472064
lowerneck -5.00305 4.11121 14.0672
upperneck 33.4503 3.72805 -0.917434
head 12.2742 3.27796 -2.34462
rclavicle 8.99501e-015 7.15625e-015
rhumerus 9.87585 27.6958 -80.8584
rradius 133.797
rwrist -43.0849
rhand -19.4407 -5.90165
rfingers 7.12502
rthumb 6.87974 -35.7699
lclavicle 8.99501e-015 7.15625e-015
lhumerus 11.6523 -15.6664 75.4833
lradius 125.551
lwrist 34.3354
lhand -11.1386 36.2911
lfingers 7.12502
lthumb 14.8869 65.7362
rfemur -46.4542 3.50058 10.3073
rtibia 49.7585
rfoot -16.4876 -4.02489
rtoes -2.66951
lfemur 12.6162 0.694066 -4.67539
ltibia 4.77083e-014
lfoot -10.5851 -1.10675
ltoes -30.523
670
root -1.44592 14.9241 6.52314 14.3886 1.97534 1.44221
lowerback -0.634342 -1.29095 -0.773961
upperback -5.0735 -1.78031 -0.821606
thorax -4.88098 -0.874791 -0.351056
lowerneck -5.41627 3.36088 12.9693
upperneck 33.5953 2.64344 -0.43632
head 12.2732 2.73403 -2.10415
rclavicle -4.4975e-015 -5.96354e-016
rhumerus 9.63286 26.91 -80.3893
rradius 134.246
rwrist -43.1557
rhand -19.5112 -5.91574
rfingers 7.12502
rthumb 6.81165 -35.7862
lclavicle -4.4975e-015 -5.96354e-016
lhumerus 10.5097 -17.5671 76.6804
lradius 128.542
lwrist 34.5836
lhand -11.3087 36.1913
lfingers 7.12502
lthumb 14.7231 65.6485
rfemur -45.4112 2.33821 10.3345
rtibia 49.7126
rfoot -16.8569 -5.03899
rtoes -2.7338
lfemur 11.7542 -1.71733 -4.45463
ltibia -2.54444e-014
lfoot -10.3171 -0.128975
ltoes -30.5378
671
root -1.45188 14.9407 6.53212 14.2638 4.37404 1.47881
lowerback -0.457364 -1.1731 -0.379828
upperback -5.11271 -1.60151 -0.535801
thorax -5.02448 -0.79408 -0.27831
lowerneck -5.76489 2.59347 11.8789
upperneck 33.6744 1.53435 0.0988993
head 12.253 2.18434 -1.84536
rclavicle -5.53491e-015 -2.68359e-015
rhumerus 9.32614 26.0606 -79.9285
rradius 134.701
rwrist -43.1439
rhand -19.5722 -5.93525
rfingers 7.12502
rthumb 6.75276 -35.8076
lclavicle -5.53491e-015 -2.68359e-015
lhumerus 9.51867 -19.5391 77.7491
lradius 131.183
lwrist 34.2757
lhand -11.2609 36.0332
lfingers 7.12502
lthumb 14.7692 65.487
rfemur -44.3714 1.30638 10.423
rtibia 49.623
rfoot -17.1715 -6.09632
rtoes -2.7496
lfemur 10.3241 -4.03707 -4.2232
ltibia 1.21514
lfoot -10.6703 0.883182
ltoes -30.5206
672
root -1.45654 14.9558 6.54031 14.1419 6.6596 1.4502
lowerback -0.295585 -1.034 0.0621309
upperback -5.1719 -1.39111 -0.265777
thorax -5.18175 -0.700672 -0.250903
lowerneck -6.02361 1.81787 10.8142
upperneck 33.6749 0.417571 0.672024
head 12.2062 1.63581 -1.57598
rclavicle -5.12492e-015 -1.93815e-014
rhumerus 8.95142 25.1495 -79.4871
rradius 135.158
rwrist -43.0921
rhand -19.656 -6.00753
rfingers 7.12502
rthumb 6.67187 -35.8824
lclavicle -5.12492e-015 -1.93815e-014
lhumerus 8.66601 -21.538 78.6958
lradius 133.496
lwrist 33.4899
lhand -10.9709 35.8104
lfingers 7.12502
lthumb 15.0485 65.2435
rfemur -43.3708 0.424822 10.5582
rtibia 49.5077
rfoot -17.4378 -7.19787
rtoes -2.68425
lfemur 7.7148 -6.23382 -4.01535
ltibia 4.89122
lfoot -12.2785 1.92979
ltoes -30.4444
673
root -1.46044 14.9685 6.54751 14.0331 8.7983 1.37028
lowerback -0.165045 -0.869258 0.523036
upperback -5.25408 -1.1441 -0.0193115
thorax -5.34549 -0.591202 -0.261406
lowerneck -6.18396 1.04519 9.79804
upperneck 33.6011 -0.693407 1.27479
head 12.1342 1.09592 -1.30164
rclavicle -1.44181e-014 1.11319e-014
rhumerus 8.51409 24.16 -79.0778
rradius 135.596
rwrist -43.0687
rhand -19.7413 -6.09144
rfingers 7.12502
rthumb 6.58959 -35.9689
lclavicle -1.44181e-014 1.11319e-014
lhumerus 7.95062 -23.5212 79.5257
lradius 135.513
lwrist 32.383
lhand -10.4684 35.5278
lfingers 7.12502
lthumb 15.5325 64.9239
rfemur -42.4524 -0.296173 10.7244
rtibia 49.3902
rfoot -17.6574 -8.32795
rtoes -2.51523
lfemur 6.01557 -8.30462 -3.58698
ltibia 6.7928
lfoot -13.0314 3.0212
ltoes -30.3368
674
root -1.46376 14.9783 6.55367 13.9427 10.7438 1.26789
lowerback -0.0756591 -0.675634 0.956216
upperback -5.34923 -0.85818 0.197604
thorax -5.49791 -0.462621 -0.290327
lowerneck -6.26569 0.294428 8.85771
upperneck 33.473 -1.77085 1.87314
head 12.0493 0.576668 -1.03696
rclavicle -9.47954e-015 -1.19271e-014
rhumerus 8.0487 23.1062 -78.7015
rradius 136.004
rwrist -43.0995
rhand -19.8365 -6.19829
rfingers 7.12502
rthumb 6.49762 -36.0786
lclavicle -9.47954e-015 -1.19271e-014
lhumerus 7.38854 -25.4372 80.2322
lradius 137.282
lwrist 31.1415
lhand -9.84854 35.221
lfingers 7.12502
lthumb 16.1295 64.5698
rfemur -41.649 -0.855664 10.8907
rtibia 49.2951
rfoot -17.8395 -9.46004
rtoes -2.25522
lfemur 4.5982 -10.1904 -3.10053
ltibia 8.20101
lfoot -13.5731 4.13854
ltoes -30.1975
675
root -1.46642 14.985 6.55896 13.8746 12.4632 1.17215
lowerback -0.0246065 -0.461226 1.31312
upperback -5.43212 -0.546585 0.391369
thorax -5.61293 -0.318798 -0.303217
lowerneck -6.35178 -0.408383 7.99131
upperneck 33.3142 -2.78327 2.44625
head 11.9759 0.090613 -0.786686
rclavicle -1.54058e-015 2.78299e-015
rhumerus 7.63846 22.0262 -78.3366
rradius 136.368
rwrist -43.2226
rhand -19.9145 -6.31197
rfingers 7.12502
rthumb 6.42232 -36.1946
lclavicle -1.54058e-015 2.78299e-015
lhumerus 7.02001 -27.2169 80.7955
lradius 138.84
lwrist 29.9229
lhand -9.24126 34.9226
lfingers 7.12502
lthumb 16.7142 64.223
rfemur -40.9776 -1.26897 11.0286
rtibia 49.2428
rfoot -17.9967 -10.555
rtoes -1.93086
lfemur 3.39718 -11.8625 -2.62978
ltibia 9.2809
lfoot -13.9969 5.25538
ltoes -30.0195
676
root -1.46828 14.9889 6.56373 13.8312 13.9348 1.10627
lowerback -0.00647656 -0.228116 1.57428
upperback -5.50935 -0.213986 0.555227
thorax -5.70095 -0.161042 -0.295436
lowerneck -6.41884 -1.0552 7.2051
upperneck 33.1388 -3.71405 2.98015
head 11.9111 -0.355405 -0.555858
rclavicle -2.51463e-014 -3.57812e-015
rhumerus 7.27658 20.9583 -78.0064
rradius 136.684
rwrist -43.4356
rhand -19.9743 -6.42341
rfingers 7.12502
rthumb 6.36467 -36.3078
lclavicle -2.51463e-014 -3.57812e-015
lhumerus 6.80242 -28.8618 81.2224
lradius 140.223
lwrist 28.8198
lhand -8.77786 34.6944
lfingers 7.12502
lthumb 17.1603 63.9567
rfemur -40.4419 -1.55712 11.1165
rtibia 49.2443
rfoot -18.139 -11.5748
rtoes -1.58071
lfemur 2.41295 -13.3047 -2.22857
ltibia 10.0717
lfoot -14.3317 6.33412
ltoes -29.7958
677
root -1.46932 14.9901 6.56832 13.8159 15.1366 1.08588
lowerback -0.0280049 0.00671698 1.70568
upperback -5.54499 0.114976 0.709763
thorax -5.72126 0.00121019 -0.225056
lowerneck -6.57291 -1.61352 6.48643
upperneck 32.9789 -4.51864 3.44285
head 11.8847 -0.744172 -0.350998
rclavicle 3.50358e-014 5.1684e-015
rhumerus 7.07527 19.9734 -77.6874
rradius 136.932
rwrist -43.7271
rhand -20.0453 -6.54676
rfingers 7.12502
rthumb 6.29609 -36.4332
lclavicle 3.50358e-014 5.1684e-015
lhumerus 6.75693 -30.3342 81.4999
lradius 141.441
lwrist 27.855
lhand -8.55492 34.5669
lfingers 7.12502
lthumb 17.3748 63.8103
rfemur -40.0429 -1.73011 11.1397
rtibia 49.3017
rfoot -18.264 -12.4939
rtoes -1.24959
lfemur 1.65918 -13.4571 -1.90735
ltibia 10.5786
lfoot -14.5488 6.31869
ltoes -29.5188
